HIERARCHY
ROOT root
{
	OFFSET 0.000000 0.000000 0.000000
	CHANNELS 6 Xposition Yposition Zposition Zrotation Yrotation Xrotation
	JOINT lhip
	{
		OFFSET 0.058581 -0.082280 -0.017664
		CHANNELS 3 Zrotation Yrotation Xrotation
		JOINT lknee
		{
			OFFSET 0.043451 -0.386469 0.008037
			CHANNELS 3 Zrotation Yrotation Xrotation
			JOINT lankle
			{
				OFFSET -0.014790 -0.426874 -0.037428
				CHANNELS 3 Zrotation Yrotation Xrotation
				JOINT ltoe
				{
					OFFSET 0.041054 -0.060286 0.122042
					CHANNELS 3 Zrotation Yrotation Xrotation
					End Site
					{
						OFFSET 0.000000 0.000000 0.000000
					}
				}
			}
		}
	}
	JOINT rhip
	{
		OFFSET -0.060310 -0.090513 -0.013543
		CHANNELS 3 Zrotation Yrotation Xrotation
		JOINT rknee
		{
			OFFSET -0.043257 -0.383688 -0.004843
			CHANNELS 3 Zrotation Yrotation Xrotation
			JOINT rankle
			{
				OFFSET 0.019056 -0.420046 -0.034562
				CHANNELS 3 Zrotation Yrotation Xrotation
				JOINT rtoe
				{
					OFFSET -0.034840 -0.062106 0.130323
					CHANNELS 3 Zrotation Yrotation Xrotation
					End Site
					{
						OFFSET 0.000000 0.000000 0.000000
					}
				}
			}
		}
	}
	JOINT lowerback
	{
		OFFSET 0.004439 0.124404 -0.038385
		CHANNELS 3 Zrotation Yrotation Xrotation
		JOINT upperback
		{
			OFFSET 0.004488 0.137956 0.026820
			CHANNELS 3 Zrotation Yrotation Xrotation
			JOINT chest
			{
				OFFSET -0.002265 0.056032 0.002855
				CHANNELS 3 Zrotation Yrotation Xrotation
				JOINT lowerneck
				{
					OFFSET -0.013390 0.211636 -0.033468
					CHANNELS 3 Zrotation Yrotation Xrotation
					JOINT upperneck
					{
						OFFSET 0.010113 0.088937 0.050410
						CHANNELS 3 Zrotation Yrotation Xrotation
						End Site
						{
							OFFSET 0.000000 0.000000 0.000000
						}
					}
				}
				JOINT lclavicle
				{
					OFFSET 0.071702 0.114000 -0.018898
					CHANNELS 3 Zrotation Yrotation Xrotation
					JOINT lshoulder
					{
						OFFSET 0.122921 0.045205 -0.019046
						CHANNELS 3 Zrotation Yrotation Xrotation
						JOINT lelbow
						{
							OFFSET 0.255332 -0.015649 -0.022946
							CHANNELS 3 Zrotation Yrotation Xrotation
							JOINT lwrist
							{
								OFFSET 0.265709 0.012698 -0.007375
								CHANNELS 3 Zrotation Yrotation Xrotation
								End Site
								{
									OFFSET 0.000000 0.000000 0.000000
								}
							}
						}
					}
				}
				JOINT rclavicle
				{
					OFFSET -0.082954 0.112472 -0.023707
					CHANNELS 3 Zrotation Yrotation Xrotation
					JOINT rshoulder
					{
						OFFSET -0.113228 0.046853 -0.008472
						CHANNELS 3 Zrotation Yrotation Xrotation
						JOINT relbow
						{
							OFFSET -0.260127 -0.014369 -0.031269
							CHANNELS 3 Zrotation Yrotation Xrotation
							JOINT rwrist
							{
								OFFSET -0.269108 0.006794 -0.006027
								CHANNELS 3 Zrotation Yrotation Xrotation
								End Site
								{
									OFFSET 0.000000 0.000000 0.000000
								}
							}
						}
					}
				}
			}
		}
	}
}
MOTION
Frames: 13
Frame Time: 0.033333
0.164944 2.097531 0.901144 4.475826 0.731749 101.213906 3.280802 -0.215262 0.595233 -7.872497 0.872147 63.460187 -0.552610 11.239807 15.076477 0.000000 -0.000000 0.000000 -8.685414 6.384483 -48.398596 1.911783 -18.550154 53.457636 0.373257 -7.194591 -20.999130 0.000000 -0.000000 0.000000 2.273397 -7.717811 22.518469 1.946300 4.055232 -7.466259 0.801480 -1.477202 0.247514 -5.899562 3.031506 -4.793982 -5.173478 1.509669 1.507598 -21.137481 -0.259726 0.317994 -57.395468 -15.025118 18.831727 37.331188 -79.780867 -12.491400 13.880943 -8.060648 -15.831656 22.843531 4.978603 2.405244 42.076650 5.375529 13.096699 -3.961264 36.734439 5.651317 -14.114841 10.210957 -2.721567 
0.156112 2.014804 0.904004 1.218528 2.140488 102.004231 5.524655 0.776112 -15.685080 -4.569540 7.776822 84.403251 0.433180 10.175659 -0.160392 0.000000 -0.000000 0.000000 -4.032170 6.454638 -41.578480 3.897626 -15.385520 51.943401 -0.041667 -6.346893 -25.372539 0.000000 -0.000000 0.000000 3.600111 -3.545749 24.473593 1.120392 5.297585 -13.553133 0.452795 -0.097213 3.095864 -5.761793 1.075163 -5.645225 -6.329121 0.272952 0.944693 -23.667184 2.070363 1.439618 -53.239119 -7.156633 14.788017 13.670835 -75.964682 9.617432 19.731232 -11.112718 -8.979724 23.339246 6.311014 2.245435 39.899824 10.083825 10.379028 -6.992863 42.896046 2.089035 -16.914458 9.957990 -3.859012 
0.150174 1.931281 0.912723 -0.474937 1.681163 102.412838 6.001469 -1.234922 -32.812843 -0.685261 11.899324 95.389618 1.741315 9.561910 -11.986947 0.000000 -0.000000 0.000000 -1.079139 2.779558 -32.656806 7.483168 -8.866810 47.568274 1.519460 -6.301066 -27.491734 0.000000 -0.000000 0.000000 1.976516 0.686319 24.364264 1.628613 4.284420 -13.406683 0.424669 1.713123 3.195620 -4.958691 -1.097340 -7.961322 -5.871044 -0.725749 -0.024705 -22.603916 6.872596 1.378257 -51.822993 -0.339594 12.462472 5.285318 -76.950012 14.761613 36.159354 -11.559953 -11.148255 22.935873 6.101801 0.216472 38.993809 15.759459 8.649610 -12.227203 50.497197 -6.679047 -20.739483 9.246783 -4.823189 
0.140688 1.797865 0.931371 -2.465164 0.460893 102.734344 8.623046 -4.876085 -53.454391 1.721988 18.059682 90.558722 2.375346 10.435792 -21.740718 0.000000 -0.000000 0.000000 0.887889 -1.712273 -16.767206 7.787561 1.026151 37.454508 4.356428 -3.761801 -24.514158 0.000000 -0.000000 0.000000 -1.381198 7.739460 22.344246 2.400799 1.761626 -14.177422 0.308653 3.473370 4.923509 -2.583656 -0.280092 -10.676263 -4.465778 -5.742246 1.465868 -19.404702 13.662017 0.305522 -48.807696 8.495350 9.964083 -17.500841 -77.449212 35.575424 26.742590 -9.275646 -15.362715 22.583878 3.723543 -3.757219 40.676639 21.479785 9.014792 -29.364095 61.064229 -22.741388 -17.794980 7.594554 -5.195351 
0.138757 1.750404 0.939734 -2.468816 -0.172331 102.955408 9.152091 -6.374251 -58.040177 1.741441 19.750598 83.949359 2.720679 11.047854 -22.632595 0.000000 -0.000000 0.000000 0.605531 -2.640298 -10.916690 6.988642 3.322025 32.524791 5.864333 -3.257182 -21.117041 0.000000 -0.000000 0.000000 -2.358875 9.713039 20.767768 2.539593 0.707778 -14.153382 0.160652 3.750399 5.441061 -2.077496 -0.107931 -10.365061 -3.835832 -7.284743 1.773358 -18.254205 15.164286 0.593680 -48.321183 9.921822 9.272405 -18.325716 -76.576703 36.138556 27.655669 -10.205431 -16.006346 22.399220 2.771587 -4.786632 41.794043 22.572683 9.772630 -35.116427 63.104327 -26.977676 -19.374682 7.929007 -5.989561 
0.137526 1.650509 0.958629 -1.754887 -2.208696 103.478596 9.559164 -11.072178 -62.201687 0.322514 22.822077 63.234848 3.933601 13.634257 -22.121158 0.000000 -0.000000 0.000000 -1.618267 -3.909652 0.378842 5.685181 5.319270 22.115184 10.503236 -3.647749 -7.807997 0.000000 -0.000000 0.000000 -4.896312 12.810808 16.386688 2.586410 -1.508492 -12.180946 -0.260163 3.732073 5.044825 -1.184672 -1.093493 -7.587816 -2.166122 -8.783412 1.154500 -16.714275 16.815119 1.921631 -47.223277 11.320815 8.831129 -14.435156 -74.900263 31.005722 30.207242 -10.146886 -15.121427 22.451067 0.900735 -5.855391 43.390038 22.949478 12.058191 -44.253685 65.620770 -34.450476 -21.446090 8.287059 -6.446267 
0.133484 1.546600 0.978408 -1.014255 -3.220728 103.231720 8.550660 -15.638169 -58.137192 -3.373746 19.981623 34.811561 3.567510 15.750594 -21.102459 0.000000 -0.000000 0.000000 -3.006887 -5.258601 8.328867 4.506140 3.294480 16.418724 14.185097 -6.846241 8.870384 0.000000 -0.000000 0.000000 -6.984499 14.468020 13.448903 2.036562 -2.962853 -10.173695 -0.079343 3.567399 3.451125 -0.704968 -2.169918 -3.337612 0.340310 -9.255522 -0.914421 -17.074738 17.114000 2.717657 -44.632379 11.457034 9.233770 -12.664337 -74.770714 25.819117 30.085634 -9.183045 -15.445476 23.522403 -0.485218 -5.833097 44.259521 20.802010 14.199444 -45.783940 67.401055 -37.135813 -24.926324 8.968004 -6.187665 
0.127811 1.440864 0.992635 -0.025199 -2.503958 102.669809 6.259554 -17.337193 -51.865705 -3.502026 13.849942 15.522147 4.448542 16.774920 -18.675118 0.000000 -0.000000 0.000000 -3.165788 -7.116887 12.226797 4.552384 0.253980 18.222735 15.398846 -9.953742 20.849599 0.000000 -0.000000 0.000000 -7.905313 14.856202 9.646324 1.995700 -3.725896 -6.345688 0.292090 3.002048 1.370057 -0.544020 -3.136247 -1.439504 2.402312 -8.800514 -1.490491 -19.094095 16.350738 2.671322 -41.726113 10.142780 10.071342 -10.836786 -75.265731 20.219735 29.267684 -9.177671 -13.687413 26.037804 -1.490518 -5.843152 43.118756 17.190688 16.024260 -38.779377 68.701282 -34.381710 -24.147364 9.605057 -4.068777 
0.123098 1.338624 0.997260 0.661358 -0.829120 102.486119 4.301440 -15.708324 -48.349033 -3.744446 8.486913 13.624756 4.647413 15.486970 -19.350740 0.000000 -0.000000 0.000000 -1.113561 -6.564181 9.937068 4.883962 -1.502235 31.214627 15.234408 -12.748720 16.583376 0.000000 -0.000000 0.000000 -8.186374 13.325534 5.906417 2.794913 -3.311014 -2.556850 0.391101 2.144359 -0.827646 0.721040 -3.899569 -1.807876 2.156924 -7.219200 -0.077425 -22.719136 14.665029 1.719862 -38.881870 8.142161 11.026000 -5.600892 -75.826822 14.496015 29.588979 -8.315031 -11.830144 29.081331 -1.639263 -5.417231 39.849387 13.170695 16.689820 -22.045937 67.639563 -19.759254 -21.419621 10.875427 -3.386865 
0.117055 1.237463 0.990441 -0.394411 0.600962 100.654457 3.786988 -15.022279 -41.202756 -4.896287 5.304761 15.005881 3.789660 14.162409 -18.700154 0.000000 -0.000000 0.000000 -0.074655 -3.399932 6.492580 5.757957 -4.660904 46.758702 14.391756 -13.863631 9.552962 0.000000 -0.000000 0.000000 -8.905883 10.683500 6.235733 3.593480 -1.735013 -1.513569 0.573670 1.880417 -2.497038 3.053671 -3.066574 -2.559202 1.430400 -5.620549 1.722772 -25.912845 13.199051 -0.125328 -36.723878 5.231423 13.178988 3.920818 -76.659394 4.497972 27.596735 -8.721176 -11.637785 31.578576 -1.811125 -5.731934 38.226485 8.574906 18.809902 -10.520113 62.625760 -10.081052 -18.509290 10.967754 -2.208457 
0.116329 1.141048 0.970619 1.052265 1.071734 99.631799 1.030138 -12.634369 -38.764291 -6.941800 3.813890 24.923848 13.474023 12.540003 -16.426098 0.000000 -0.000000 0.000000 -1.637676 -3.153861 0.446111 5.420900 -9.761310 61.166722 10.217305 -12.301066 3.824355 0.000000 -0.000000 0.000000 -9.135390 6.503639 8.762590 4.330021 -1.865376 -4.971222 0.461551 1.302262 -1.078300 4.368057 -3.244110 -4.117352 2.101845 -1.679509 4.053330 -27.997540 11.479586 -1.616121 -36.839762 0.642577 14.484058 15.696378 -77.794784 -6.873638 26.782734 -8.713634 -9.582793 31.602526 -2.721358 -6.553047 39.246784 4.561976 20.560149 -5.769336 55.296962 -4.383123 -13.730223 11.816012 0.585906 
0.115126 1.051161 0.954670 2.860122 0.831045 97.100885 -1.946181 -11.460910 -33.630813 -8.517369 0.767636 33.404266 12.289831 15.499851 -22.469215 0.000000 -0.000000 0.000000 -3.810445 -2.601446 -8.955259 2.361460 -13.476696 75.885728 9.968812 -12.172365 -3.629140 0.000000 -0.000000 0.000000 -9.114502 2.761292 16.942026 3.867649 -2.072499 -12.132888 1.198630 -0.289167 2.095922 5.330924 -1.182973 -8.175485 2.405923 1.227216 6.447523 -27.870627 8.245486 -3.960303 -40.209336 -4.780903 14.941581 28.325291 -77.534575 -14.831892 25.758312 -8.662027 -10.541412 29.024728 -3.236160 -9.169150 43.684104 -0.706883 21.902318 -6.208209 47.839992 -2.544867 -11.153628 10.463497 1.325351 
0.114849 0.961941 0.952645 3.726308 -0.253219 95.496945 -4.255361 -10.790074 -22.084733 -10.857396 -2.795836 28.456126 11.492973 17.522594 -25.012760 0.000000 -0.000000 0.000000 -7.211736 -2.114453 -21.944466 0.115657 -15.055237 85.771634 12.462308 -10.792930 -12.512750 0.000000 -0.000000 0.000000 -9.143010 -0.079454 21.265103 2.824485 -2.166945 -13.101086 1.149115 -2.354826 1.218293 5.366473 1.626624 -6.813879 3.298108 1.674016 3.930852 -24.295544 4.390548 -1.418813 -45.469431 -12.816680 13.922280 46.626064 -77.092553 -29.398786 24.118963 -9.315759 -11.146670 25.457524 -4.510699 -5.190817 49.821738 -1.908651 18.767506 -7.050360 39.721279 -2.537356 -10.039547 9.928601 1.013357 
